<svg xmlns="http://www.w3.org/2000/svg" width="24" height="24" viewBox="0 0 24 24" fill="white">
  <path d="M12 0C5.373 0 0 5.373 0 12c0 5.303 3.438 9.8 8.207 11.385.6.113.793-.26.793-.578 0-.285-.01-1.04-.015-2.04-3.338.724-4.042-1.61-4.042-1.61-.547-1.39-1.334-1.758-1.334-1.758-1.09-.745.082-.73.082-.73 1.205.086 1.838 1.235 1.838 1.235 1.07 1.837 2.807 1.307 3.49.997.108-.774.419-1.307.762-1.607-2.665-.302-5.466-1.334-5.466-5.93 0-1.31.465-2.378 1.235-3.218-.124-.302-.534-1.524.116-3.176 0 0 1.007-.322 3.3 1.23A11.583 11.583 0 0112 4.59c1.04-.003 2.09.14 3.066.41 2.29-1.552 3.295-1.23 3.295-1.23.654 1.652.244 2.874.12 3.176.77.84 1.23 1.907 1.23 3.217 0 4.608-2.805 5.624-5.475 5.92.43.372.814 1.102.814 2.222 0 1.605-.015 2.898-.015 3.29 0 .32.192.696.798.578C20.566 21.795 24 17.3 24 12c0-6.627-5.373-12-12-12z"/>
</svg>

